<?xml version="1.0" encoding="UTF-8"?>
<svg version="1.1" viewBox="0 0 2048 1148" width="1063" height="596" xmlns="http://www.w3.org/2000/svg">
<path transform="translate(1041,357)" d="m0 0h32l8 7 7 8 8 7 8 8 4 5 8 7 9 9 7 8 11 11 7 8 20 20 10-1 25-10 15-5 28-6 16-2h21l15 2 9 4-1 5-7 11-7 8-8 7-11 8-15 9-16 9-26 12-18 7h-3l-3 42-3 64-2 36-7 8-10 9-9 7-3-1-12-73-5-43-2-22-1-5-16 4-57 15-27 6-5 2-2 12-2 7v9l4 4 1 10 12 14 15 16 9 11 8 8 9 11 12 13 7 8 7 1 12 11 12 13-4 6-3 1-11-9-9-9-6-9 1-4-4-2-8-8-8-7-14-14-8-7-9-9-11-9-7-8-7-6-3-1-2 7-2 2h-4l-3-3-2 2-4-1-4-33v-34l-6-10-10-10-12-17-16-16 1-3 8-2h7l19 13 16 12 9 6v-18l2-1v17l6-2 18-10 21-10 32-16 15-8h2l-3-7-12-16-28-42-9-13-17-25-10-15-2-4z" fill="#F56470"/>
<path transform="translate(955,529)" d="m0 0 4 2 13 13 9 11 4 6 1 3 2 29v10l-4 3-18 6-16 5-20 8-34 17-21 12-14 9-18 14-7 7-10 13-4 10-2 9v11l3 6 9 7 13 8 11 4 23 6 6 1 17 1 1 3-14 3-25 3h-25l-17-3-12-5-11-6-5-4-7-10-6-12-3-12v-23l4-16 8-16 9-14 8-10 11-12 7-8 11-9 12-12 13-10 45-30 22-13 24-13z" fill="#F7ACB2"/>
<path transform="translate(873,671)" d="m0 0 4 2 8 16 12 16 9 10 8 9 8 7 23 15 12 6 19 7 20 5 16 2h24l17-2 19-5 24-9 14-8 15-10 14-12 10-10 7-8 9-10 11-9 10-9h2l-3 9-11 21-12 16-12 13-12 11-13 9-19 11-12 6-22 7-21 4-7 2h-41l-30-7-21-7-17-9-18-11-15-13-13-13-11-14-7-11-9-14-1-5z" fill="#211912"/>
<path transform="translate(1012,421)" d="m0 0h24l13 1 3 2 11 2 9 4 10 15 3 5-30-9-6-1h-50l-19 5-19 7-15 7-16 10-12 9-19 19-10 14-7 11-12 25-7 20-5 5-12 9-2-1 6-25 9-27 8-15 12-18 8-10 9-10 7-7 11-9 15-10 15-9 13-5 10-4 21-6 12-3z" fill="#211912"/>
<path transform="translate(1024,546)" d="m0 0h1l3 36 3 8 4 4 1 10 12 14 15 16 9 11 8 8 9 11 12 13 7 8 7 1 12 11 12 13-4 6-3 1-11-9-9-9-6-9 1-4-4-2-8-8-8-7-14-14-8-7-9-9-11-9-7-8-7-6-3-1-2 7-2 2h-4l-3-3-2 2-4-1-4-33 2-5 9-2 4-31z" fill="#211912"/>
<path transform="translate(1021,704)" d="m0 0h6l2 1v54l-5 1-5-2v-53z" fill="#1F1811"/>
<path transform="translate(1021,446)" d="m0 0h7l1 1v51l-1 1h-8l-1-1v-50z" fill="#211912"/>
<path transform="translate(1110,685)" d="m0 0 5 1 12 11 12 13-4 6-3 1-11-9-9-9-6-9 1-4z" fill="#231913"/>
<path transform="translate(934,685)" d="m0 0 6 1 2 2-1 6-22 22-3 1-5-5 1-4 7-8z" fill="#221913"/>
<path transform="translate(915,489)" d="m0 0 4 1 10 9 8 8 6 8-4 4-4 1-11-9-11-12-2-3 1-4z" fill="#231913"/>
<path transform="translate(1124,596)" d="m0 0h11v12h-11l-2-1-1-8z" fill="#1F1811"/>
<path transform="translate(1010,610)" d="m0 0 4 4 2 8-4 1-1-1z" fill="#F66470"/>
<path transform="translate(1022,500)" d="m0 0h4l-1 3z" fill="#1E1811"/>
</svg>
